HIERARCHY
ROOT Hips
{
	OFFSET 0.00000 0.00000 0.00000
	CHANNELS 6 Xposition Yposition Zposition Zrotation Yrotation Xrotation 
	JOINT LHipJoint
	{
		OFFSET 0 0 0
		CHANNELS 3 Zrotation Yrotation Xrotation
		JOINT LeftHip
		{
			OFFSET 1.28366 -1.58472 0.87544
			CHANNELS 3 Zrotation Yrotation Xrotation
			JOINT LeftKnee
			{
				OFFSET 2.18587 -6.00562 0.00000
				CHANNELS 3 Zrotation Yrotation Xrotation
				JOINT LeftAnkle
				{
					OFFSET 2.39085 -6.56880 0.00000
					CHANNELS 3 Zrotation Yrotation Xrotation
					JOINT LeftToe
					{
						OFFSET 0.12003 -0.32979 2.03101
						CHANNELS 3 Zrotation Yrotation Xrotation
						End Site
						{
							OFFSET 0.00000 -0.00000 1.04074
						}
					}
				}
			}
		}
	}
	JOINT RHipJoint
	{
		OFFSET 0 0 0
		CHANNELS 3 Zrotation Yrotation Xrotation
		JOINT RightHip
		{
			OFFSET -1.21795 -1.58472 0.87544
			CHANNELS 3 Zrotation Yrotation Xrotation
			JOINT RightKnee
			{
				OFFSET -2.22714 -6.11902 0.00000
				CHANNELS 3 Zrotation Yrotation Xrotation
				JOINT RightAnkle
				{
					OFFSET -2.40306 -6.60235 0.00000
					CHANNELS 3 Zrotation Yrotation Xrotation
					JOINT RightToe
					{
						OFFSET -0.15519 -0.42640 1.91430
						CHANNELS 3 Zrotation Yrotation Xrotation
						End Site
						{
							OFFSET -0.00000 -0.00000 0.99082
						}
					}
				}
			}
		}
	}
	JOINT lowerback
	{
		OFFSET 0 0 0
		CHANNELS 3 Zrotation Yrotation Xrotation
		JOINT Chest
		{
			OFFSET 0.01180 1.76430 -0.06387
			CHANNELS 3 Zrotation Yrotation Xrotation
			JOINT Chest2
			{
				OFFSET -0.00388 1.74651 0.09536
				CHANNELS 3 Zrotation Yrotation Xrotation
				JOINT lowerneck
				{
					OFFSET 0 0 0
					CHANNELS 3 Zrotation Yrotation Xrotation
					JOINT Neck
					{
						OFFSET 0.04111 1.46174 0.14397
						CHANNELS 3 Zrotation Yrotation Xrotation
						JOINT Head
						{
							OFFSET 0.00502 1.44580 -0.31711
							CHANNELS 3 Zrotation Yrotation Xrotation
							End Site
							{
								OFFSET -0.00395 1.49251 -0.12327
							}
						}
					}
				}
				JOINT LeftCollar
				{
					OFFSET 0 0 0
					CHANNELS 3 Zrotation Yrotation Xrotation
					JOINT LeftShoulder
					{
						OFFSET 2.70917 1.34870 -0.15417
CHANNELS 3 Zrotation Xrotation Yrotation
						JOINT LeftElbow
						{
OFFSET 0 -4.466100 -0.000000
CHANNELS 3 Zrotation Xrotation Yrotation
							JOINT LeftWrist
							{
OFFSET 0 -3.414140 0.000000
CHANNELS 3 Zrotation Xrotation Yrotation
								JOINT lhand
								{
									OFFSET 0 0 0
CHANNELS 3 Zrotation Xrotation Yrotation
									JOINT LFingers
									{
OFFSET 0 -0.328300 0.000000
CHANNELS 3 Zrotation Xrotation Yrotation
										End Site
										{
OFFSET 0 -0.264680 0.000000
										}
									}
								}
								JOINT LThumb
								{
OFFSET 0 0.000000 0.000000
CHANNELS 3 Zrotation Xrotation Yrotation
									End Site
									{
OFFSET 0 -0.268720 0.268720
									}
								}
							}
						}
					}
				}
				JOINT RightCollar
				{
					OFFSET 0 0 0
					CHANNELS 3 Zrotation Yrotation Xrotation
					JOINT RightShoulder
					{
						OFFSET -3.06316 1.13725 -0.10883
CHANNELS 3 Zrotation Xrotation Yrotation
						JOINT RightElbow
						{
OFFSET 0 -4.404310 0.000000
CHANNELS 3 Zrotation Xrotation Yrotation
							JOINT RightWrist
							{
OFFSET 0 -3.046880 0.000000
CHANNELS 3 Zrotation Xrotation Yrotation
								JOINT rhand
								{
									OFFSET 0 0 0
CHANNELS 3 Zrotation Xrotation Yrotation
									JOINT RFingers
									{
OFFSET 0 -0.500490 0.000000
CHANNELS 3 Zrotation Xrotation Yrotation
										End Site
										{
OFFSET 0 -0.403510 0.000000
										}
									}
								}
								JOINT RThumb
								{
OFFSET 0 0.000000 0.000000
CHANNELS 3 Zrotation Xrotation Yrotation
									End Site
									{
OFFSET 0 -0.409670 0.409670
									}
								}
							}
						}
					}
				}
			}
		}
	}
}
MOTION
Frames: 8
Frame Time: 0.008333333333333333
-30.184000 12.957800 14.913100 -175.870000 -0.041000 -176.312000 0.000000 0.000000 0.000000 -11.350000 30.593600 -52.610600 16.277800 19.664500 79.058300 3.326200 -8.191000 -33.089600 5.390900 -13.810900 -42.485200 0.000000 0.000000 0.000000 20.098100 -28.584400 -52.294500 -16.198800 -19.650000 78.823400 -3.232900 -0.494700 -34.280100 -0.016300 -0.823900 2.264500 0.924900 0.897000 3.459900 1.045600 1.703300 -6.384100 0.377300 0.958100 -8.660500 -2.267100 -3.244600 -16.426600 3.660200 -5.403100 21.399600 0.897900 -2.516400 9.650500 -0.000000 -0.000000 0.000000 89.845500 -15.462400 -66.261200 137.369200 -49.553600 99.580600 54.673100 -32.614900 10.127200 0.000000 0.000000 0.000000 -7.125000 0.000000 0.000000 18.499500 13.412600 14.496400 -0.000000 -0.000000 0.000000 -81.041800 -12.885000 65.641200 -128.708700 -53.503200 -92.791200 -57.734000 -48.493200 -36.073400 0.000000 0.000000 0.000000 7.125000 0.000000 -0.000000 -12.182400 -22.807000 -16.221900
-30.180792 12.993370 14.916501 -175.960070 0.026025 -176.375234 0.000000 0.000000 0.000000 -11.402540 30.695898 -52.282369 16.101919 19.631726 78.535165 3.264988 -8.902461 -32.721149 5.118463 -13.516015 -41.332124 0.000000 0.000000 0.000000 20.085639 -28.626450 -52.018669 -16.019040 -19.615729 78.288526 -3.176854 -0.600018 -34.013587 -0.012493 -0.720918 1.981200 0.824919 0.953825 3.518912 0.965296 1.763236 -6.386495 0.340821 0.989160 -8.698050 -2.258581 -3.094232 -16.501623 3.843851 -5.247648 21.474191 0.979246 -2.422917 9.691052 0.000000 0.000000 0.000000 89.996872 -15.532392 -66.113844 137.401076 -49.536467 99.604905 54.566467 -32.563585 10.204649 0.000000 0.000000 0.000000 -7.125000 0.000000 0.000000 18.413344 13.329061 14.455291 0.000000 0.000000 0.000000 -81.155317 -12.759734 65.433089 -128.566902 -53.557413 -92.677160 -57.531068 -48.283400 -35.998330 0.000000 0.000000 0.000000 7.125000 0.000000 0.000000 -12.112815 -22.591837 -16.102607
-30.175179 13.028831 14.916198 -175.915790 0.085237 -176.519514 0.000000 0.000000 0.000000 -11.283740 30.846785 -51.852534 15.915622 19.595262 77.980278 3.215448 -9.185271 -32.444766 4.913795 -13.286050 -40.448922 0.000000 0.000000 0.000000 20.112585 -28.497924 -51.514495 -15.830171 -19.577948 77.725224 -3.152067 -0.655343 -33.897812 -0.014202 -0.768968 2.113285 0.837223 0.999114 3.605867 0.942699 1.813177 -6.317678 0.304076 1.007467 -8.673226 -2.136804 -2.944404 -16.526342 3.790676 -5.045800 21.429519 0.968127 -2.322251 9.668178 0.000000 0.000000 0.000000 89.983423 -15.649738 -66.171838 137.362126 -49.557386 99.575221 54.359333 -32.769930 10.322638 0.000000 0.000000 0.000000 -7.125000 0.000000 0.000000 18.254996 13.217317 14.362008 0.000000 0.000000 0.000000 -81.418182 -12.734105 65.288583 -128.509299 -53.579325 -92.630761 -57.351583 -48.069854 -36.029434 0.000000 0.000000 0.000000 7.125000 0.000000 0.000000 -12.012359 -22.505413 -15.955294
-30.169054 13.062700 14.915700 -175.925175 0.052939 -176.576860 0.000000 0.000000 0.000000 -11.277345 30.725803 -51.505724 15.739397 19.559090 77.454306 3.181549 -9.245126 -32.262585 4.559149 -12.869465 -38.881765 0.000000 0.000000 0.000000 20.127289 -28.266207 -51.086882 -15.650932 -19.540293 77.189811 -3.115174 -1.160014 -33.864712 -0.003998 -0.406707 1.117555 0.772306 1.004614 3.715528 0.896674 1.803495 -6.271390 0.291446 1.001161 -8.687447 -1.981004 -2.814707 -16.521951 3.789103 -4.881504 21.261512 0.965245 -2.229639 9.598850 0.000000 0.000000 0.000000 89.996800 -15.761485 -66.258935 137.369491 -49.553442 99.580824 54.042168 -32.877395 10.402019 0.000000 0.000000 0.000000 -7.125000 0.000000 0.000000 18.040915 13.202675 14.180481 0.000000 0.000000 0.000000 -81.645022 -12.679608 65.241125 -128.583396 -53.551076 -92.690380 -57.354846 -47.976744 -36.096554 0.000000 0.000000 0.000000 7.125000 0.000000 0.000000 -11.987263 -22.578667 -15.928725
-30.161872 13.095434 14.915691 -175.931860 0.000391 -176.530533 0.000000 0.000000 0.000000 -11.341804 30.439547 -51.299149 15.584790 19.526080 76.992176 3.154866 -8.773993 -32.143911 4.178031 -12.393591 -37.138901 0.000000 0.000000 0.000000 20.183889 -27.906503 -50.790145 -15.494617 -19.506234 76.722257 -3.055660 -2.072140 -33.861397 -0.003697 0.390061 -1.071688 0.688860 1.023071 3.859752 0.836748 1.811480 -6.249658 0.271225 1.004698 -8.749060 -1.971043 -2.798643 -16.476773 4.010243 -4.878628 20.939181 1.042892 -2.199219 9.483610 0.000000 0.000000 0.000000 90.039539 -15.878420 -66.245562 137.428724 -49.521583 99.625968 53.904372 -32.809338 10.314407 0.000000 0.000000 0.000000 -7.125000 0.000000 0.000000 17.981665 13.383241 14.056358 0.000000 0.000000 0.000000 -81.752706 -12.466263 65.225765 -128.663435 -53.520528 -92.754749 -57.279862 -47.872536 -36.096655 0.000000 0.000000 0.000000 7.125000 0.000000 0.000000 -11.950451 -22.529154 -15.872889
-30.160712 13.121828 14.914065 -175.874416 0.073078 -176.473474 0.000000 0.000000 0.000000 -11.353257 30.356884 -51.180457 15.477235 19.502307 76.670017 3.122067 -8.454954 -31.987352 3.839464 -11.943618 -35.532835 0.000000 0.000000 0.000000 20.285999 -27.577177 -50.535161 -15.350144 -19.473508 76.289031 -3.048260 -1.480876 -33.610744 -0.009446 -0.627898 1.725450 0.695258 1.062943 4.079668 0.786295 1.858336 -6.245930 0.203950 1.021556 -8.873198 -1.974791 -2.832602 -16.391370 4.224057 -4.945160 20.625259 1.111015 -2.206016 9.366916 0.000000 0.000000 0.000000 90.115278 -15.885429 -66.213478 137.467630 -49.500735 99.655547 53.954141 -32.643109 10.102777 0.000000 0.000000 0.000000 -7.125000 0.000000 0.000000 18.070410 13.691343 14.009144 0.000000 0.000000 0.000000 -81.747738 -12.318711 65.304092 -128.592943 -53.547444 -92.698071 -57.080534 -47.648874 -36.064322 0.000000 0.000000 0.000000 7.125000 0.000000 0.000000 -11.865565 -22.363426 -15.738481
-30.164891 13.147123 14.907895 -175.913982 0.232074 -176.384037 0.000000 0.000000 0.000000 -11.528382 30.422919 -51.117560 15.369250 19.477942 76.346465 3.089900 -8.137519 -31.835684 3.566688 -11.560346 -34.193818 0.000000 0.000000 0.000000 20.280188 -27.369295 -50.397574 -15.227884 -19.444970 75.922151 -3.016751 -1.543303 -33.459916 -0.011449 -0.690737 1.898348 0.641783 1.131782 4.253496 0.736080 1.940231 -6.249923 0.166893 1.060430 -8.980540 -2.079101 -2.900931 -16.263230 4.383250 -5.033944 20.417645 1.173790 -2.240012 9.281482 0.000000 0.000000 0.000000 90.184376 -15.942082 -66.185069 137.417732 -49.527584 99.617574 53.874953 -32.559864 10.064850 0.000000 0.000000 0.000000 -7.125000 0.000000 0.000000 18.032741 13.775368 13.942741 0.000000 0.000000 0.000000 -81.803449 -12.295451 65.406149 -128.401111 -53.620387 -92.543772 -56.870306 -47.330191 -36.026035 0.000000 0.000000 0.000000 7.125000 0.000000 0.000000 -11.777617 -22.184838 -15.598672
-30.174355 13.174576 14.898677 -175.951654 0.370390 -176.195791 0.000000 0.000000 0.000000 -11.725858 30.349706 -51.067691 15.243072 19.448616 75.967716 3.060426 -8.098850 -31.678495 3.197993 -11.008781 -32.309551 0.000000 0.000000 0.000000 20.297690 -27.191740 -50.380137 -15.104366 -19.415383 75.550981 -2.972878 -1.551391 -33.221211 -0.013661 -0.755251 2.075467 0.603807 1.180498 4.319174 0.660063 1.997911 -6.281829 0.098530 1.087656 -9.052739 -2.114247 -2.969322 -16.349576 4.613449 -5.206835 20.604501 1.233192 -2.302494 9.377037 0.000000 0.000000 0.000000 90.311182 -16.010353 -66.076372 137.427919 -49.522011 99.625358 53.807340 -32.434043 9.896776 0.000000 0.000000 0.000000 -7.125000 0.000000 0.000000 18.037938 14.054990 13.834087 0.000000 0.000000 0.000000 -81.741440 -12.310670 65.429297 -128.144565 -53.716937 -92.337054 -56.583938 -46.828443 -36.011285 0.000000 0.000000 0.000000 7.125000 0.000000 0.000000 -11.642910 -21.982487 -15.392755
